HIERARCHY
ROOT joint_Root
{
	OFFSET 0.0 0.0 0.0
	CHANNELS 6 Xposition Yposition Zposition Zrotation Xrotation Yrotation 
	JOINT Hips
	{
		OFFSET -0.726466 93.3139 -2.00062
		CHANNELS 6 Xposition Yposition Zposition Zrotation Xrotation Yrotation 
		JOINT Spine
		{
			OFFSET 15.7357 0.0 0.0
			CHANNELS 6 Xposition Yposition Zposition Zrotation Xrotation Yrotation 
			JOINT Chest
			{
				OFFSET 8.98455 -0.406207 0.0
				CHANNELS 6 Xposition Yposition Zposition Zrotation Xrotation Yrotation 
				JOINT Neck
				{
					OFFSET 16.3773 0.0 0.0
					CHANNELS 6 Xposition Yposition Zposition Zrotation Xrotation Yrotation 
					JOINT Head
					{
						OFFSET 6.45672 0.0 0.0
						CHANNELS 6 Xposition Yposition Zposition Zrotation Xrotation Yrotation 
						End Site
						{
							OFFSET 0.0 0.0 0.0
						}
					}
				}
				JOINT Shoulder_L
				{
					OFFSET 12.9942 -0.242716 4.98039
					CHANNELS 6 Xposition Yposition Zposition Zrotation Xrotation Yrotation 
					JOINT UpperArm_L
					{
						OFFSET 5.34809 0.0 0.0
						CHANNELS 6 Xposition Yposition Zposition Zrotation Xrotation Yrotation 
						JOINT LowerArm_L
						{
							OFFSET 24.3286 1.87007e-05 0.0
							CHANNELS 6 Xposition Yposition Zposition Zrotation Xrotation Yrotation 
							JOINT Hand_L
							{
								OFFSET 22.2916 0.0 0.0
								CHANNELS 6 Xposition Yposition Zposition Zrotation Xrotation Yrotation 
								End Site
								{
									OFFSET 0.0 0.0 0.0
								}
							}
						}
					}
				}
				JOINT Shoulder_R
				{
					OFFSET 12.9945 -0.242716 -4.98039
					CHANNELS 6 Xposition Yposition Zposition Zrotation Xrotation Yrotation 
					JOINT UpperArm_R
					{
						OFFSET -5.34813 0.0 0.0
						CHANNELS 6 Xposition Yposition Zposition Zrotation Xrotation Yrotation 
						JOINT LowerArm_R
						{
							OFFSET -24.3289 0.000322201 0.0
							CHANNELS 6 Xposition Yposition Zposition Zrotation Xrotation Yrotation 
							JOINT Hand_R
							{
								OFFSET -22.2915 -0.000108084 0.0
								CHANNELS 6 Xposition Yposition Zposition Zrotation Xrotation Yrotation 
								End Site
								{
									OFFSET 0.0 0.0 0.0
								}
							}
						}
					}
				}
			}
		}
		JOINT UpperLeg_L
		{
			OFFSET -2.19248 -6.46944 0.0
			CHANNELS 6 Xposition Yposition Zposition Zrotation Xrotation Yrotation 
			JOINT LowerLeg_L
			{
				OFFSET 39.0811 0.0 -1.23785e-05
				CHANNELS 6 Xposition Yposition Zposition Zrotation Xrotation Yrotation 
				JOINT Foot_L
				{
					OFFSET 40.9854 0.0 -1.26872e-05
					CHANNELS 6 Xposition Yposition Zposition Zrotation Xrotation Yrotation 
					JOINT Toes_L
					{
						OFFSET 11.7543 0.0 0.0
						CHANNELS 6 Xposition Yposition Zposition Zrotation Xrotation Yrotation 
						End Site
						{
							OFFSET 0.0 0.0 0.0
						}
					}
				}
			}
		}
		JOINT UpperLeg_R
		{
			OFFSET -2.19251 6.46944 0.0
			CHANNELS 6 Xposition Yposition Zposition Zrotation Xrotation Yrotation 
			JOINT LowerLeg_R
			{
				OFFSET -39.0811 -0.00228153 -0.0401928
				CHANNELS 6 Xposition Yposition Zposition Zrotation Xrotation Yrotation 
				JOINT Foot_R
				{
					OFFSET -40.9854 0.0 0.0
					CHANNELS 6 Xposition Yposition Zposition Zrotation Xrotation Yrotation 
					JOINT Toes_R
					{
						OFFSET -11.7543 0.0 0.0
						CHANNELS 6 Xposition Yposition Zposition Zrotation Xrotation Yrotation 
						End Site
						{
							OFFSET 0.0 0.0 0.0
						}
					}
				}
			}
		}
	}
}
MOTION
Frames:	9
Frame Time:	0.0333333
0.000000 0.000000 0.000000 0.000000 0.000000 -0.000000 -0.562039 92.155400 -2.197290 88.078800 -2.345020 5.230410 15.735700 0.000005 -0.000001 81.757000 83.812000 -81.360300 8.984550 -0.406207 -0.000000 4.490210 -1.782660 0.862343 16.377300 -0.000001 -0.000001 2.297920 -1.529920 0.891861 6.456720 -0.000001 -0.000000 1.326710 -0.109403 0.235157 12.994200 -0.242716 4.980390 -90.171500 0.570873 -73.275300 5.348090 -0.000007 -0.000001 -64.401600 39.854500 -14.819400 24.328600 0.000019 0.000005 -4.345720 -5.691110 -37.465100 22.291600 -0.000001 0.000005 6.095620 5.625460 -13.002700 12.994500 -0.242716 -4.980390 88.127400 6.140040 -73.002900 -5.348130 -0.000001 -0.000004 -64.946100 35.531200 -15.028000 -24.328900 0.000322 -0.000009 -6.845400 -11.664200 -30.696200 -22.291500 -0.000108 -0.000004 7.568860 5.548980 -8.658670 -2.192480 -6.469440 -0.000000 -170.146000 -20.626500 -2.634880 39.081100 -0.000007 -0.000012 -0.136051 0.314772 23.375100 40.985400 -0.000006 -0.000013 -4.775430 -0.272780 -63.325300 11.754300 -0.000000 0.000003 -0.000165 -0.001577 -16.637400 -2.192510 6.469440 -0.000001 173.947000 23.588600 179.346000 -39.081100 -0.002282 -0.040193 0.028710 -0.066149 20.999000 -40.985400 0.000008 0.000006 -0.281204 4.926080 -63.071600 -11.754300 -0.000006 -0.000006 -0.003014 -0.040763 -18.230900
0.000000 0.000000 0.000000 0.000000 0.000000 -0.000000 -0.581236 92.173900 -2.266480 88.084800 -2.324790 5.124730 15.735700 0.000005 -0.000001 81.631900 83.875500 -81.236100 8.984550 -0.406207 -0.000000 4.360580 -1.791440 0.859106 16.377300 -0.000001 -0.000001 1.881020 -1.488020 0.857031 6.456720 -0.000001 -0.000000 1.022510 -0.184738 0.292723 12.994200 -0.242716 4.980390 -90.087800 0.284187 -72.823400 5.348090 -0.000007 -0.000001 -63.446100 38.183700 -14.676100 24.328600 0.000019 0.000005 -3.053630 -3.955060 -37.721100 22.291600 -0.000001 0.000005 6.495910 5.629740 -13.316600 12.994500 -0.242716 -4.980390 88.174500 5.879350 -72.716900 -5.348130 -0.000001 -0.000004 -64.907600 32.547300 -14.656100 -24.328900 0.000322 -0.000009 -5.490140 -9.730030 -29.621100 -22.291500 -0.000108 -0.000004 7.722110 5.535290 -8.030560 -2.192480 -6.469440 -0.000000 -170.205000 -20.589400 -2.754140 39.081100 -0.000007 -0.000012 -0.134974 0.314006 23.260400 40.985400 -0.000006 -0.000013 -4.781510 -0.329803 -63.213500 11.754300 -0.000000 0.000003 -0.000165 -0.001573 -16.637200 -2.192510 6.469440 -0.000001 174.027000 23.623400 179.198000 -39.081100 -0.002282 -0.040193 0.029189 -0.067555 20.953600 -40.985400 0.000008 0.000006 -0.247296 4.909640 -62.976700 -11.754300 -0.000006 -0.000006 -0.003254 -0.043448 -18.340200
0.000000 0.000000 0.000000 0.000000 0.000000 -0.000000 -0.600291 92.200900 -2.321000 88.076300 -2.313040 4.992120 15.735700 0.000005 -0.000001 81.464100 84.023800 -81.066100 8.984550 -0.406207 -0.000000 4.061890 -1.784290 0.858388 16.377300 -0.000001 -0.000001 1.598450 -1.376360 0.833914 6.456720 -0.000001 -0.000000 0.701739 -0.153867 0.321185 12.994200 -0.242716 4.980390 -90.001200 0.003685 -72.240300 5.348090 -0.000007 -0.000001 -61.630700 35.063300 -14.371900 24.328600 0.000019 0.000005 -2.095550 -2.689460 -37.947800 22.291600 -0.000001 0.000005 6.555450 5.627820 -13.173700 12.994500 -0.242716 -4.980390 88.241400 5.480590 -72.179000 -5.348130 -0.000001 -0.000004 -63.906400 28.582100 -14.824700 -24.328900 0.000322 -0.000009 -4.268090 -8.171570 -27.692700 -22.291500 -0.000108 -0.000004 8.265260 5.521960 -7.449780 -2.192480 -6.469440 -0.000000 -170.251000 -20.612800 -2.859070 39.081100 -0.000007 -0.000012 -0.133042 0.312014 23.093500 40.985400 -0.000006 -0.000013 -4.773930 -0.325630 -63.083400 11.754300 -0.000000 0.000003 -0.000166 -0.001582 -16.637500 -2.192510 6.469440 -0.000001 174.117000 23.693300 179.058000 -39.081100 -0.002282 -0.040193 0.028189 -0.065322 20.842700 -40.985400 0.000008 0.000006 -0.254313 4.961190 -62.818200 -11.754300 -0.000006 -0.000006 -0.002973 -0.040294 -18.211800
0.000000 0.000000 0.000000 0.000000 0.000000 -0.000000 -0.610461 92.214500 -2.383600 88.071200 -2.377290 4.832540 15.735700 0.000005 -0.000001 81.401800 84.219300 -81.013800 8.984550 -0.406207 -0.000000 3.672870 -1.740090 0.830913 16.377300 -0.000001 -0.000001 1.342720 -1.246860 0.887115 6.456720 -0.000001 -0.000000 0.455964 -0.041972 0.322501 12.994200 -0.242716 4.980390 -89.921700 -0.238693 -71.843300 5.348090 -0.000007 -0.000001 -58.291900 30.740800 -14.476600 24.328600 0.000019 0.000005 -2.054560 -2.679320 -37.503900 22.291600 -0.000001 0.000005 6.695590 5.625760 -13.024700 12.994500 -0.242716 -4.980390 88.347400 5.038470 -71.814000 -5.348130 -0.000001 -0.000004 -61.437900 23.620700 -15.847300 -24.328900 0.000322 -0.000009 -3.160070 -6.940250 -24.545200 -22.291500 -0.000108 -0.000004 9.177210 5.511170 -6.990160 -2.192480 -6.469440 -0.000000 -170.301000 -20.700900 -3.016170 39.081100 -0.000007 -0.000012 -0.132285 0.311388 23.017100 40.985400 -0.000006 -0.000013 -4.771350 -0.341869 -63.008600 11.754300 -0.000000 0.000003 -0.000154 -0.001483 -16.633900 -2.192510 6.469440 -0.000001 174.229000 23.712700 178.863000 -39.081100 -0.002282 -0.040193 0.029113 -0.068009 20.769900 -40.985400 0.000008 0.000006 -0.156110 4.989210 -62.769500 -11.754300 -0.000006 -0.000006 -0.003079 -0.041487 -18.260400
0.000000 0.000000 0.000000 0.000000 0.000000 -0.000000 -0.621947 92.228100 -2.437680 88.052600 -2.430390 4.689240 15.735700 0.000005 -0.000001 81.507100 84.414100 -81.130700 8.984550 -0.406207 -0.000000 3.290020 -1.662770 0.799819 16.377300 -0.000001 -0.000001 0.959351 -1.077970 0.943341 6.456720 -0.000001 -0.000000 0.365304 0.007729 0.397689 12.994200 -0.242716 4.980390 -89.798800 -0.604389 -71.587500 5.348090 -0.000007 -0.000001 -53.554100 25.375100 -15.429700 24.328600 0.000019 0.000005 -1.748180 -2.410490 -35.966300 22.291600 -0.000001 0.000005 7.394060 5.626880 -13.104300 12.994500 -0.242716 -4.980390 88.514000 4.515220 -71.761300 -5.348130 -0.000001 -0.000004 -57.316700 17.992300 -17.708100 -24.328900 0.000322 -0.000009 -2.124650 -5.645940 -20.641000 -22.291500 -0.000108 -0.000004 10.458900 5.499280 -6.509600 -2.192480 -6.469440 -0.000000 -170.344000 -20.698800 -3.173870 39.081100 -0.000007 -0.000012 -0.131556 0.310663 22.951200 40.985400 -0.000006 -0.000013 -4.777230 -0.397797 -62.938800 11.754300 -0.000000 0.000003 -0.000163 -0.001558 -16.636600 -2.192510 6.469440 -0.000001 174.333000 23.691500 178.717000 -39.081100 -0.002282 -0.040193 0.028708 -0.067352 20.653600 -40.985400 0.000008 0.000006 -0.151344 5.028640 -62.692600 -11.754300 -0.000006 -0.000006 -0.003173 -0.042546 -18.303400
0.000000 0.000000 0.000000 0.000000 0.000000 -0.000000 -0.621431 92.230700 -2.483860 88.051100 -2.451770 4.634660 15.735700 0.000005 -0.000001 82.073300 84.615000 -81.714700 8.984550 -0.406207 -0.000000 2.906690 -1.499010 0.754538 16.377300 -0.000001 -0.000001 0.555641 -0.952383 0.994787 6.456720 -0.000001 -0.000000 0.140389 -0.026529 0.441617 12.994200 -0.242716 4.980390 -89.633900 -1.084880 -71.352400 5.348090 -0.000007 -0.000001 -48.210300 18.374400 -16.872800 24.328600 0.000019 0.000005 -1.413640 -2.101510 -33.936600 22.291600 -0.000001 0.000005 7.587510 5.624690 -12.947800 12.994500 -0.242716 -4.980390 88.707300 3.888590 -71.594700 -5.348130 -0.000001 -0.000004 -52.469700 10.462100 -19.842800 -24.328900 0.000322 -0.000009 -1.012960 -3.323400 -16.927600 -22.291500 -0.000108 -0.000004 10.737100 5.480670 -5.772040 -2.192480 -6.469440 -0.000000 -170.392000 -20.615300 -3.274310 39.081100 -0.000007 -0.000012 -0.131507 0.310492 22.954900 40.985400 -0.000006 -0.000013 -4.797160 -0.563404 -62.916500 11.754300 -0.000000 0.000003 -0.000162 -0.001551 -16.636400 -2.192510 6.469440 -0.000001 174.377000 23.702000 178.634000 -39.081100 -0.002282 -0.040193 0.028817 -0.067739 20.625900 -40.985400 0.000008 0.000006 -0.149698 5.033380 -62.672100 -11.754300 -0.000006 -0.000006 -0.003330 -0.044281 -18.374100
0.000000 0.000000 0.000000 0.000000 0.000000 -0.000000 -0.623191 92.244400 -2.512330 88.052500 -2.412050 4.541170 15.735700 0.000005 -0.000001 82.429200 84.839100 -82.078700 8.984550 -0.406207 -0.000000 2.470690 -1.375010 0.729889 16.377300 -0.000001 -0.000001 0.036021 -0.804166 0.982341 6.456720 -0.000001 -0.000000 -0.042524 0.030825 0.546689 12.994200 -0.242716 4.980390 -89.375100 -1.833520 -71.177300 5.348090 -0.000007 -0.000001 -43.434400 9.474150 -18.204100 24.328600 0.000019 0.000005 -1.336880 -2.121800 -32.226300 22.291600 -0.000001 0.000005 7.605550 5.618270 -12.502100 12.994500 -0.242716 -4.980390 88.984600 3.012120 -71.361400 -5.348130 -0.000001 -0.000004 -47.444900 1.495040 -22.281500 -24.328900 0.000322 -0.000009 -0.465517 -1.866060 -13.961600 -22.291500 -0.000108 -0.000004 10.055000 5.463790 -5.137790 -2.192480 -6.469440 -0.000000 -170.440000 -20.575300 -3.359380 39.081100 -0.000007 -0.000012 -0.131084 0.310847 22.865200 40.985400 -0.000006 -0.000013 -4.787800 -0.542955 -62.851600 11.754300 -0.000000 0.000003 -0.000165 -0.001575 -16.637300 -2.192510 6.469440 -0.000001 174.446000 23.564300 178.530000 -39.081100 -0.002282 -0.040193 0.028040 -0.065875 20.568300 -40.985400 0.000008 0.000006 -0.257845 4.877540 -62.572000 -11.754300 -0.000006 -0.000006 -0.003394 -0.044985 -18.402700
0.000000 0.000000 0.000000 0.000000 0.000000 -0.000000 -0.614309 92.260400 -2.505380 88.038600 -2.301400 4.404320 15.735700 0.000005 -0.000001 82.406300 85.108700 -82.052400 8.984550 -0.406207 -0.000000 1.935490 -1.309940 0.729245 16.377300 -0.000001 -0.000001 -0.372638 -0.698437 1.028760 6.456720 -0.000001 -0.000000 -0.299940 0.178545 0.495694 12.994200 -0.242716 4.980390 -89.055000 -2.758890 -71.084800 5.348090 -0.000007 -0.000001 -39.406500 -0.793461 -19.280700 24.328600 0.000019 0.000005 -1.290330 -2.095490 -31.634000 22.291600 -0.000001 0.000005 8.090820 5.618200 -12.497300 12.994500 -0.242716 -4.980390 89.345000 1.915170 -71.114700 -5.348130 -0.000001 -0.000004 -42.735800 -8.266440 -24.580200 -24.328900 0.000322 -0.000009 0.035864 0.158205 -13.142500 -22.291500 -0.000108 -0.000004 10.242500 5.447930 -4.567520 -2.192480 -6.469440 -0.000000 -170.498000 -20.577100 -3.485350 39.081100 -0.000007 -0.000012 -0.126943 0.302254 22.781900 40.985400 -0.000006 -0.000013 -4.757420 -0.480103 -62.800000 11.754300 -0.000000 0.000003 -0.000138 -0.001353 -16.629100 -2.192510 6.469440 -0.000001 174.518000 23.551700 178.426000 -39.081100 -0.002282 -0.040193 0.027786 -0.065438 20.499500 -40.985400 0.000008 0.000006 -0.339800 4.736020 -62.464100 -11.754300 -0.000006 -0.000006 -0.003603 -0.047248 -18.494800
0.000000 0.000000 0.000000 0.000000 0.000000 -0.000000 -0.576592 92.276700 -2.467780 88.082600 -2.211230 4.255230 15.735700 0.000005 -0.000001 82.138500 85.379200 -81.792500 8.984550 -0.406207 -0.000000 1.393010 -1.282660 0.707035 16.377300 -0.000001 -0.000001 -0.728733 -0.617649 1.135360 6.456720 -0.000001 -0.000000 -0.561924 0.321436 0.364946 12.994200 -0.242716 4.980390 -88.642800 -3.897340 -70.783600 5.348090 -0.000007 -0.000001 -35.998700 -11.528400 -21.154400 24.328600 0.000019 0.000005 -1.137460 -1.837090 -31.772900 22.291600 -0.000001 0.000005 9.046230 5.616950 -12.413400 12.994500 -0.242716 -4.980390 89.817500 0.522204 -70.727500 -5.348130 -0.000001 -0.000004 -38.240100 -17.292800 -27.493200 -24.328900 0.000322 -0.000009 0.364611 1.517540 -13.546700 -22.291500 -0.000108 -0.000004 12.707000 5.444800 -4.455610 -2.192480 -6.469440 -0.000000 -170.627000 -20.532300 -3.564970 39.081100 -0.000007 -0.000012 -0.127134 0.304811 22.640700 40.985400 -0.000006 -0.000013 -4.733520 -0.457755 -62.758700 11.754300 -0.000000 0.000003 -0.000145 -0.001410 -16.631200 -2.192510 6.469440 -0.000001 174.514000 23.500600 178.309000 -39.081100 -0.002282 -0.040193 0.028344 -0.067095 20.453000 -40.985400 0.000008 0.000006 -0.321912 4.611130 -62.410000 -11.754300 -0.000006 -0.000006 -0.003739 -0.048693 -18.553700
